
        <svg xmlns="http://www.w3.org/2000/svg" xmlns:xlink="http://www.w3.org/1999/xlink" version="1.1" width="3174.712735561428" 
        height="381.23349146642477" viewBox="0 0 3174.712735561428 381.23349146642477">
			
			<g transform="scale(8.7356367780714) translate(10, 10)">
				<defs id="SvgjsDefs18861"></defs><g id="SvgjsG18862" featureKey="nameLeftFeature-0" transform="matrix(0.8052172116464776,0,0,0.8052172116464776,-0.5475483336098834,-8.921772855350923)" fill="#ffffff"><path d="M8.2 16.4 l-2.84 0 l2.6 -4.96 l8.8 0 l8.96 28.56 l-6.88 0 l-1.6 -5.72 l-1.56 0.12 l-5.56 0 l-1.36 -0.12 l-1.64 5.72 l-6.44 0 z M15.68 28.84 l-2.64 -9.52 l-2.8 9.52 l5.44 0 z M30.16 16.4 l-3.8 0 l2.6 -5 l6.56 0 l9.48 15.68 l0.24 0.68 l0 -16.36 l6.24 0 l0 28.6 l-5.32 0 l-9.6 -15.8 l-0.2 -0.6 l0 16.4 l-6.2 0 l0 -23.6 z M72.28 29.759999999999998 l-4.2 -0.000039062 l2.64 -5.12 l7.76 0 l0 14.48 c-1.5467 0.53332 -3.0334 0.88664 -4.46 1.06 s-2.6734 0.26 -3.74 0.26 c-2.3467 0 -4.3868 -0.36 -6.12 -1.08 s-3.1733 -1.72 -4.32 -3 s-2 -2.8133 -2.56 -4.6 s-0.84 -3.7467 -0.84 -5.88 s0.29332 -4.1068 0.88 -5.92 s1.4467 -3.38 2.58 -4.7 s2.54 -2.3467 4.22 -3.08 s3.6 -1.1 5.76 -1.1 c1.2533 0 2.46 0.09332 3.62 0.28 s2.46 0.57336 3.9 1.16 l-2.72 5 c-0.50668 -0.21332 -1.12 -0.38 -1.84 -0.5 s-1.4933 -0.18 -2.32 -0.18 c-2.3733 0 -4.1668 0.74668 -5.38 2.24 s-1.82 3.76 -1.82 6.8 s0.6 5.2668 1.8 6.68 s3.0133 2.12 5.44 2.12 c0.64 0 1.2133 -0.05332 1.72 -0.16 l0 -4.76 z M83 11.399999999999999 l16.84 0 c-0.26668 1.0133 -0.53336 1.9733 -0.80004 2.88 s-0.53336 1.84 -0.80004 2.8 l-8.8 0 c0 0.10668 0.01332 0.26 0.04 0.46 s0.04 0.35332 0.04 0.46 l0 4.2 l8.08 0 l0 5.72 l-8.08 0 l0 5.48 l-0.08 0.92 l10.56 0 l0 5.68 l-17 0 l0 -28.6 z M104.16 11.399999999999999 l6.36 0 l0 22.84 l4.6 0 l1 0.12 l0 -2.72 l5.4 -2.52 l0 10.88 l-17.36 0 l0 -28.6 z M155.07999999999998 39.32 c-1.12 0.45332 -2.1933 0.75328 -3.22 0.89996 s-2.1667 0.22 -3.42 0.22 c-2.2667 0 -4.2532 -0.36 -5.96 -1.08 s-3.1267 -1.7267 -4.26 -3.02 s-1.9866 -2.8333 -2.56 -4.62 s-0.86 -3.7467 -0.86 -5.88 s0.29332 -4.1068 0.88 -5.92 s1.4467 -3.3733 2.58 -4.68 s2.54 -2.3267 4.22 -3.06 s3.6 -1.1 5.76 -1.1 c1.2533 0 2.3866 0.12 3.4 0.36 s2 0.57332 2.96 1 l-1.64 5.32 c-0.53332 -0.24 -1.1266 -0.45332 -1.78 -0.64 s-1.4333 -0.28 -2.34 -0.28 c-4.7468 0 -7.12 3 -7.12 9 c0 3.0133 0.61332 5.24 1.84 6.68 s3.12 2.16 5.68 2.16 c0.85332 0 1.6066 -0.06 2.26 -0.18 s1.3 -0.3 1.94 -0.54 z"></path></g><g id="SvgjsG18863" featureKey="inlineSymbolFeature-0" transform="matrix(0.04651943879057826,0,0,0.04651943879057826,128.90812411282505,-0.09303887758115652)" fill="#3dd2cc"><g xmlns="http://www.w3.org/2000/svg"><path d="M306.6,330.2c-1.2-30.7-29.4-54.4-61.7-47.6c-18.5,3.9-33.9,18.9-38.3,37.3c-7.1,30.1,12.6,57.1,40,62.2   c-6.9,14.4-17.6,23.1-32.2,25.6c-5.2,0.9-9.2,4.8-9.2,10v30.8c0,5.8,5,10.8,10.8,10.2c55.7-5.1,89-50.4,90.5-123.4   c0.1-1.1,0.3-2.1,0.3-3.1c0-0.3-0.1-0.5-0.1-0.8c0-0.4,0.1-0.8,0.1-1.3H306.6z"></path><path d="M256,78.2c-28.1,0-50.8,22.7-50.8,50.8c0,28.1,22.7,50.8,50.8,50.8c28.1,0,50.8-22.7,50.8-50.8   C306.8,100.9,284.1,78.2,256,78.2z"></path><path d="M144.2,2H129C86.9,2,52.8,36.1,52.8,78.2v116.5L9.4,238c-9.9,9.9-9.9,26,0,35.9l43.4,43.4v116.5   c0,42.1,34.1,76.2,76.2,76.2h15.2c5.6,0,10.2-4.5,10.2-10.2v-30.5c0-5.6-4.5-10.2-10.2-10.2H129c-14,0-25.4-11.4-25.4-25.4v-127   c0-6.7-2.7-13.2-7.4-18L63.3,256l32.8-32.8c4.8-4.8,7.4-11.2,7.4-18v-127c0-14,11.4-25.4,25.4-25.4h15.2c5.6,0,10.2-4.5,10.2-10.2   V12.2C154.4,6.5,149.9,2,144.2,2z"></path><path d="M502.6,238l-43.4-43.4V78.2C459.2,36.1,425.1,2,383,2h-15.2c-5.6,0-10.2,4.5-10.2,10.2v30.5c0,5.6,4.5,10.2,10.2,10.2H383   c14,0,25.4,11.4,25.4,25.4v127c0,6.7,2.7,13.2,7.4,18l32.8,32.8l-32.8,32.8c-4.8,4.8-7.4,11.2-7.4,18v127c0,14-11.4,25.4-25.4,25.4   h-15.2c-5.6,0-10.2,4.5-10.2,10.2v30.5c0,5.6,4.5,10.2,10.2,10.2H383c42.1,0,76.2-34.1,76.2-76.2V317.3l43.4-43.4   C512.5,264,512.5,248,502.6,238z"></path></g></g><g id="SvgjsG18864" featureKey="nameRightFeature-0" transform="matrix(0.806317910111847,0,0,0.806317910111847,155.83906794707272,-8.966255068167976)" fill="#ffffff"><path d="M2.68 11.64 c1.28 -0.16 2.4533 -0.28668 3.52 -0.38 s2.2 -0.14 3.4 -0.14 c1.4667 0 2.9267 0.14 4.38 0.42 s2.7533 0.76668 3.9 1.46 s2.0734 1.6266 2.78 2.8 s1.06 2.6666 1.06 4.48 c0 1.04 -0.14 1.9733 -0.42 2.8 s-0.62668 1.5534 -1.04 2.18 s-0.87332 1.1734 -1.38 1.64 s-1 0.86 -1.48 1.18 l-0.2 0.12 l0.54 0.88 l1.32 2.2 l1.7 2.84 l1.7 2.82 l1.28 2.18 l0.5 0.84 l-7.32 0 l-7.56 -13.16 l0 13.2 l-6.68 0 l0 -28.36 z M9.36 26.560000000000002 l1.4 -0.64 c0.34668 -0.16 0.76 -0.36 1.24 -0.6 s0.94668 -0.55332 1.4 -0.94 s0.84 -0.84668 1.16 -1.38 s0.48 -1.1866 0.48 -1.96 c0 -0.82668 -0.12 -1.5134 -0.36 -2.06 s-0.57332 -0.98668 -1 -1.32 s-0.92668 -0.57332 -1.5 -0.72 s-1.1933 -0.22 -1.86 -0.22 l-0.46 0 l-0.5 0.04 l0 9.8 z M27.12 11.64 c1.28 -0.16 2.4533 -0.28668 3.52 -0.38 s2.2 -0.14 3.4 -0.14 c1.4667 0 2.9267 0.14 4.38 0.42 s2.7533 0.76668 3.9 1.46 s2.0734 1.6266 2.78 2.8 s1.06 2.6666 1.06 4.48 c0 1.04 -0.14 1.9733 -0.42 2.8 s-0.62668 1.5534 -1.04 2.18 s-0.87332 1.1734 -1.38 1.64 s-1 0.86 -1.48 1.18 l-0.2 0.12 l0.54 0.88 l1.32 2.2 l1.7 2.84 l1.7 2.82 l1.28 2.18 l0.5 0.84 l-7.32 0 l-7.56 -13.16 l0 13.2 l-6.68 0 l0 -28.36 z M33.8 26.560000000000002 l1.4 -0.64 c0.34668 -0.16 0.76 -0.36 1.24 -0.6 s0.94668 -0.55332 1.4 -0.94 s0.84 -0.84668 1.16 -1.38 s0.48 -1.1866 0.48 -1.96 c0 -0.82668 -0.12 -1.5134 -0.36 -2.06 s-0.57332 -0.98668 -1 -1.32 s-0.92668 -0.57332 -1.5 -0.72 s-1.1933 -0.22 -1.86 -0.22 l-0.46 0 l-0.5 0.04 l0 9.8 z M57.08 16.4 l-2.84 0 l2.6 -4.96 l8.8 0 l8.96 28.56 l-6.88 0 l-1.6 -5.72 l-1.56 0.12 l-5.56 0 l-1.36 -0.12 l-1.64 5.72 l-6.44 0 z M64.56 28.84 l-2.64 -9.52 l-2.8 9.52 l5.44 0 z M77.84 11.399999999999999 l6.36 0 l0 22.84 l4.6 0 l1 0.12 l0 -2.72 l5.4 -2.52 l0 10.88 l-17.36 0 l0 -28.6 z M110.80000000000001 16.4 l-3.8 0 l2.6 -5 l6.56 0 l9.48 15.68 l0.24 0.68 l0 -16.36 l6.24 0 l0 28.6 l-5.32 0 l-9.6 -15.8 l-0.2 -0.6 l0 16.4 l-6.2 0 l0 -23.6 z M137.84 11.399999999999999 l6.56 -0.000078124 l0 15.28 c0 1.4933 0.06668 2.7533 0.2 3.78 s0.36 1.8534 0.68 2.48 s0.76 1.0734 1.32 1.34 s1.2667 0.4 2.12 0.4 c0.88 0 1.6 -0.13332 2.16 -0.4 s1 -0.70668 1.32 -1.32 s0.54668 -1.4333 0.68 -2.46 s0.2 -2.3 0.2 -3.82 l0 -15.28 l6.56 0 l0 16.48 c0 1.9733 -0.16668 3.7333 -0.5 5.28 s-0.91332 2.86 -1.74 3.94 s-1.94 1.9067 -3.34 2.48 s-3.18 0.86 -5.34 0.86 c-2.1333 0 -3.9 -0.28668 -5.3 -0.86 s-2.5133 -1.4 -3.34 -2.48 s-1.4067 -2.3933 -1.74 -3.94 s-0.5 -3.3067 -0.5 -5.28 l0 -16.48 z M165.92000000000002 16.4 l-3.8 0 l2.6 -5 l6.56 0 l9.48 15.68 l0.24 0.68 l0 -16.36 l6.24 0 l0 28.6 l-5.32 0 l-9.6 -15.8 l-0.2 -0.6 l0 16.4 l-6.2 0 l0 -23.6 z M193.28 11.399999999999999 l16.84 0 c-0.26668 1.0133 -0.53336 1.9733 -0.80004 2.88 s-0.53336 1.84 -0.80004 2.8 l-8.8 0 c0 0.10668 0.01332 0.26 0.04 0.46 s0.04 0.35332 0.04 0.46 l0 4.2 l8.08 0 l0 5.72 l-8.08 0 l0 5.48 l-0.08 0.92 l10.56 0 l0 5.68 l-17 0 l0 -28.6 z M221.28 34.32 l11.36 0 l0 5.68 l-18.88 0 l0 -4.8 l11.24 -18.12 l-6.24 0 l0 3.48 l-5.08 -2.76 l0 -6.4 l18.88 0 l0 4.76 z"></path></g>
			</g>
		</svg>
	